<mxfile host="app.diagrams.net" agent="Mozilla/5.0 (X11; Linux x86_64; rv:128.0) Gecko/20100101 Firefox/128.0" version="26.0.8">
  <diagram name="Page-1" id="1l4Hk3QW8v-zNrdhhSxq">
    <mxGraphModel dx="1434" dy="822" grid="1" gridSize="10" guides="1" tooltips="1" connect="1" arrows="1" fold="1" page="1" pageScale="1" pageWidth="850" pageHeight="1100" math="0" shadow="0">
      <root>
        <mxCell id="0" />
        <mxCell id="1" parent="0" />
        <mxCell id="43GyFaymjqWp4qDGF987-94" value="" style="rounded=1;whiteSpace=wrap;html=1;fillColor=none;strokeColor=#d79b00;" vertex="1" parent="1">
          <mxGeometry x="73.25" y="75.25" width="393.5" height="224.75" as="geometry" />
        </mxCell>
        <mxCell id="43GyFaymjqWp4qDGF987-93" value="" style="rounded=1;whiteSpace=wrap;html=1;fillColor=none;strokeColor=#b85450;" vertex="1" parent="1">
          <mxGeometry x="76.5" y="337.63" width="393.5" height="224.75" as="geometry" />
        </mxCell>
        <mxCell id="43GyFaymjqWp4qDGF987-53" value="" style="rounded=1;whiteSpace=wrap;html=1;" vertex="1" parent="1">
          <mxGeometry x="345" y="390" width="105" height="140" as="geometry" />
        </mxCell>
        <mxCell id="43GyFaymjqWp4qDGF987-5" value="" style="rounded=1;whiteSpace=wrap;html=1;" vertex="1" parent="1">
          <mxGeometry x="110" y="140" width="100" height="130" as="geometry" />
        </mxCell>
        <mxCell id="43GyFaymjqWp4qDGF987-1" value="" style="rounded=1;whiteSpace=wrap;html=1;fillColor=#dae8fc;strokeColor=#6c8ebf;" vertex="1" parent="1">
          <mxGeometry x="120" y="150" width="80" height="20" as="geometry" />
        </mxCell>
        <mxCell id="43GyFaymjqWp4qDGF987-2" value="" style="rounded=1;whiteSpace=wrap;html=1;fillColor=#dae8fc;strokeColor=#6c8ebf;" vertex="1" parent="1">
          <mxGeometry x="120" y="180" width="80" height="20" as="geometry" />
        </mxCell>
        <mxCell id="43GyFaymjqWp4qDGF987-3" value="" style="rounded=1;whiteSpace=wrap;html=1;fillColor=#dae8fc;strokeColor=#6c8ebf;" vertex="1" parent="1">
          <mxGeometry x="120" y="210" width="80" height="20" as="geometry" />
        </mxCell>
        <mxCell id="43GyFaymjqWp4qDGF987-4" value="" style="rounded=1;whiteSpace=wrap;html=1;fillColor=#dae8fc;strokeColor=#6c8ebf;" vertex="1" parent="1">
          <mxGeometry x="120" y="240" width="80" height="20" as="geometry" />
        </mxCell>
        <mxCell id="43GyFaymjqWp4qDGF987-6" value="&lt;font style=&quot;font-size: 20px;&quot;&gt;&lt;font&gt;1.1B&lt;/font&gt;&lt;font&gt;&lt;br&gt;&lt;/font&gt;&lt;/font&gt;" style="text;html=1;align=center;verticalAlign=middle;whiteSpace=wrap;rounded=0;" vertex="1" parent="1">
          <mxGeometry x="130" y="270" width="60" height="30" as="geometry" />
        </mxCell>
        <mxCell id="43GyFaymjqWp4qDGF987-7" value="" style="rounded=1;whiteSpace=wrap;html=1;" vertex="1" parent="1">
          <mxGeometry x="230" y="100" width="120" height="170" as="geometry" />
        </mxCell>
        <mxCell id="43GyFaymjqWp4qDGF987-9" value="" style="rounded=1;whiteSpace=wrap;html=1;fillColor=#ffe6cc;strokeColor=#d79b00;" vertex="1" parent="1">
          <mxGeometry x="240" y="180" width="100" height="20" as="geometry" />
        </mxCell>
        <mxCell id="43GyFaymjqWp4qDGF987-10" value="" style="rounded=1;whiteSpace=wrap;html=1;fillColor=#ffe6cc;strokeColor=#d79b00;" vertex="1" parent="1">
          <mxGeometry x="240" y="210" width="100" height="20" as="geometry" />
        </mxCell>
        <mxCell id="43GyFaymjqWp4qDGF987-11" value="" style="rounded=1;whiteSpace=wrap;html=1;fillColor=#ffe6cc;strokeColor=#d79b00;" vertex="1" parent="1">
          <mxGeometry x="240" y="240" width="100" height="20" as="geometry" />
        </mxCell>
        <mxCell id="43GyFaymjqWp4qDGF987-12" value="&lt;font style=&quot;font-size: 20px;&quot;&gt;&lt;font&gt;13B&lt;/font&gt;&lt;font&gt;&lt;br&gt;&lt;/font&gt;&lt;/font&gt;" style="text;html=1;align=center;verticalAlign=middle;whiteSpace=wrap;rounded=0;" vertex="1" parent="1">
          <mxGeometry x="260" y="270" width="60" height="30" as="geometry" />
        </mxCell>
        <mxCell id="43GyFaymjqWp4qDGF987-13" value="" style="rounded=1;whiteSpace=wrap;html=1;fillColor=#ffe6cc;strokeColor=#d79b00;" vertex="1" parent="1">
          <mxGeometry x="240" y="110" width="100" height="20" as="geometry" />
        </mxCell>
        <mxCell id="43GyFaymjqWp4qDGF987-16" value="&lt;div align=&quot;center&quot;&gt;&lt;font style=&quot;font-size: 20px;&quot;&gt;...&lt;/font&gt;&lt;/div&gt;" style="text;html=1;align=center;verticalAlign=middle;whiteSpace=wrap;rounded=0;rotation=90;" vertex="1" parent="1">
          <mxGeometry x="240" y="140" width="60" height="30" as="geometry" />
        </mxCell>
        <mxCell id="43GyFaymjqWp4qDGF987-17" value="&lt;div align=&quot;center&quot;&gt;&lt;font style=&quot;font-size: 20px;&quot;&gt;...&lt;/font&gt;&lt;/div&gt;" style="text;html=1;align=center;verticalAlign=middle;whiteSpace=wrap;rounded=0;rotation=-90;" vertex="1" parent="1">
          <mxGeometry x="280" y="140" width="60" height="30" as="geometry" />
        </mxCell>
        <mxCell id="43GyFaymjqWp4qDGF987-20" value="" style="shape=image;verticalLabelPosition=bottom;labelBackgroundColor=default;verticalAlign=top;aspect=fixed;imageAspect=0;editableCssRules=.*;image=data:image/svg+xml,PHN2ZyB2aWV3Qm94PSIwIDAgMTIyLjg4IDEwNC45MSIgeG1sbnM9Imh0dHA6Ly93d3cudzMub3JnLzIwMDAvc3ZnIiBkYXRhLW5hbWU9IkxheWVyIDEiIGlkPSJMYXllcl8xIj48dGl0bGU+Z3B1PC90aXRsZT48cGF0aCBkPSJNMzIuMDUsMTguNTlIOTAuODNhMTIuNzEsMTIuNzEsMCwwLDEsOSwzLjc2aDBhMTIuNzYsMTIuNzYsMCwwLDEsMy43Niw5VjczLjUyYTEyLjc4LDEyLjc4LDAsMCwxLTMuNzcsOWwwLDBhMTIuNzcsMTIuNzcsMCwwLDEtOSwzLjc2SDMyLjA1YTEyLjc2LDEyLjc2LDAsMCwxLTktMy43N2gwYTEyLjc2LDEyLjc2LDAsMCwxLTMuNzYtOVYzMS4zOWExMi43NSwxMi43NSwwLDAsMSwzLjc2LTlsMCwwYTEyLjc4LDEyLjc4LDAsMCwxLDktMy43NVptOS41OSw0NGE0Ljg5LDQuODksMCwwLDEtNC44NS0zLDExLjIyLDExLjIyLDAsMCwxLS45LTMuMjEsMjguMzEsMjguMzEsMCwwLDEtLjI1LTMuOUEyNS40NywyNS40NywwLDAsMSwzNiw0OC4zM2E4LjY5LDguNjksMCwwLDEsMS4xMy0zLjIzQTUuMjksNS4yOSwwLDAsMSwzOS40Myw0M2E5LjI1LDkuMjUsMCwwLDEsNC0uNzMsMjYuNTgsMjYuNTgsMCwwLDEsMi43My4xMiwxOC43NSwxOC43NSwwLDAsMSwyLjE0LjM1Yy42Ni4xNSwxLjM1LjMzLDIuMDcuNTN2NC4wNmMtLjQtLjA3LS45LS4xNC0xLjUxLS4xOXMtMS4yOS0uMS0yLS4xNFM0NS4yNSw0Nyw0NC40LDQ3YTQuNDgsNC40OCwwLDAsMC0yLjMxLjQ3LDIuNDQsMi40NCwwLDAsMC0xLDEuNjgsMTguNDgsMTguNDgsMCwwLDAtLjI0LDMuMzksMjEuODUsMjEuODUsMCwwLDAsLjEzLDIuNyw0Ljc3LDQuNzcsMCwwLDAsLjQ0LDEuNiwxLjY3LDEuNjcsMCwwLDAsLjguNzgsMi42OCwyLjY4LDAsMCwwLDEuMTUuMjIsMTMuNDksMTMuNDksMCwwLDAsMS43OC0uMWMuNTItLjA2LjkxLS4xMiwxLjE4LS4xN1Y1NUg0My41N1Y1MC44M2MuNC0uMDYuODctLjEsMS40MS0uMTRzMS4xMS0uMDcsMS43LS4wOSwxLjExLDAsMS42LDBINTBsMS4zNiwwVjYyLjQ3SDQ3LjQybC0uNy0xLjMyYTEwLDEwLDAsMCwxLTIsLjk0LDguNzMsOC43MywwLDAsMS0zLjA2LjUxWm0xMi42Ni0uMTN2LTIwaDguNzdhMTAuMTMsMTAuMTMsMCwwLDEsMi4wOS4yMyw0LjY1LDQuNjUsMCwwLDEsMiwuOTQsNC44LDQuOCwwLDAsMSwxLjQ1LDIuMTUsMTAuOSwxMC45LDAsMCwxLC41NSwzLjgzLDExLjc5LDExLjc5LDAsMCwxLS41MywzLjg5LDUuMTksNS4xOSwwLDAsMS0xLjQsMi4yLDQuNTUsNC41NSwwLDAsMS0xLjg3LDEsOCw4LDAsMCwxLTIsLjI1LDkuNzQsOS43NCwwLDAsMS0xLjA2LDBjLS4zNywwLS43My0uMDgtMS4wOC0uMTVzLS42Ny0uMTItMS0uMTlsLS43NC0uMTR2NlpNNTkuNTIsNTIuM2gzYTEuMTcsMS4xNywwLDAsMCwuODUtLjI5LDEuNywxLjcsMCwwLDAsLjQzLS44Nyw3LjMxLDcuMzEsMCwwLDAsLjEyLTEuNDQsNS41LDUuNSwwLDAsMC0uMTUtMS40LDEuODQsMS44NCwwLDAsMC0uNDQtLjg1LDEuMTMsMS4xMywwLDAsMC0uODEtLjI4aC0zVjUyLjNaTTc5LjE1LDYyLjZBMTguMTIsMTguMTIsMCwwLDEsNzYsNjIuMzRhNy4xNSw3LjE1LDAsMCwxLTIuNTktMSw0Ljc2LDQuNzYsMCwwLDEtMS43Ni0yLDcuODIsNy44MiwwLDAsMS0uNjQtMy40MlY0Mi40OWg1LjIyVjU1Ljg1QTEuODYsMS44NiwwLDAsMCw3Ni42MSw1N2EyLDIsMCwwLDAsMSwuNjksNS40MSw1LjQxLDAsMCwwLDMuMTIsMCwyLjA1LDIuMDUsMCwwLDAsMS0uNjlBMS45MiwxLjkyLDAsMCwwLDgyLDU1Ljg1VjQyLjQ5aDUuMjJWNTUuODhhOCw4LDAsMCwxLS42MywzLjQyLDQuODMsNC44MywwLDAsMS0xLjc2LDIsNy4zMSw3LjMxLDAsMCwxLTIuNTgsMSwxOC4wNywxOC4wNywwLDAsMS0zLjEyLjI2Wm0yLjQxLDI5LjcxaDYuODNhMS4yOCwxLjI4LDAsMCwxLDEuMjcsMS4yOHYxMGExLjI4LDEuMjgsMCwwLDEtMS4yNywxLjI4SDgxLjU2YTEuMjgsMS4yOCwwLDAsMS0xLjI4LTEuMjh2LTEwYTEuMjgsMS4yOCwwLDAsMSwxLjI4LTEuMjhabS0xNS42OSwwSDcyLjdBMS4yOSwxLjI5LDAsMCwxLDc0LDkzLjU5djEwYTEuMjksMS4yOSwwLDAsMS0xLjI4LDEuMjhINjUuODdhMS4yOCwxLjI4LDAsMCwxLTEuMjgtMS4yOHYtMTBhMS4yOCwxLjI4LDAsMCwxLDEuMjgtMS4yOFptLTE1LjY5LDBINTdhMS4yOCwxLjI4LDAsMCwxLDEuMjgsMS4yOHYxMEExLjI4LDEuMjgsMCwwLDEsNTcsMTA0LjkxSDUwLjE4YTEuMjksMS4yOSwwLDAsMS0xLjI4LTEuMjh2LTEwYTEuMjksMS4yOSwwLDAsMSwxLjI4LTEuMjhabS0xNS42OSwwaDYuODRhMS4yOCwxLjI4LDAsMCwxLDEuMjcsMS4yOHYxMGExLjI4LDEuMjgsMCwwLDEtMS4yNywxLjI4SDM0LjQ5YTEuMjgsMS4yOCwwLDAsMS0xLjI3LTEuMjh2LTEwYTEuMjgsMS4yOCwwLDAsMSwxLjI3LTEuMjhaTTgxLjU2LDBoNi44M2ExLjI3LDEuMjcsMCwwLDEsMS4yNywxLjI4djEwYTEuMjcsMS4yNywwLDAsMS0xLjI3LDEuMjhIODEuNTZhMS4yOCwxLjI4LDAsMCwxLTEuMjgtMS4yOHYtMTBBMS4yOCwxLjI4LDAsMCwxLDgxLjU2LDBaTTY1Ljg3LDBINzIuN0ExLjI4LDEuMjgsMCwwLDEsNzQsMS4yOHYxMGExLjI4LDEuMjgsMCwwLDEtMS4yOCwxLjI4SDY1Ljg3YTEuMjgsMS4yOCwwLDAsMS0xLjI4LTEuMjh2LTEwQTEuMjgsMS4yOCwwLDAsMSw2NS44NywwWk01MC4xOCwwSDU3YTEuMjgsMS4yOCwwLDAsMSwxLjI4LDEuMjh2MTBBMS4yOCwxLjI4LDAsMCwxLDU3LDEyLjU5SDUwLjE4YTEuMjgsMS4yOCwwLDAsMS0xLjI4LTEuMjh2LTEwQTEuMjgsMS4yOCwwLDAsMSw1MC4xOCwwWk0zNC40OSwwaDYuODRBMS4yNywxLjI3LDAsMCwxLDQyLjYsMS4yOHYxMGExLjI3LDEuMjcsMCwwLDEtMS4yNywxLjI4SDM0LjQ5YTEuMjcsMS4yNywwLDAsMS0xLjI3LTEuMjh2LTEwQTEuMjcsMS4yNywwLDAsMSwzNC40OSwwWm03NS44LDU2LjM2djYuODNhMS4yOCwxLjI4LDAsMCwwLDEuMjgsMS4yOGgxMGExLjI4LDEuMjgsMCwwLDAsMS4yOC0xLjI4VjU2LjM2YTEuMjgsMS4yOCwwLDAsMC0xLjI4LTEuMjhoLTEwYTEuMjgsMS4yOCwwLDAsMC0xLjI4LDEuMjhabTAtMTUuNjl2Ni44NGExLjI3LDEuMjcsMCwwLDAsMS4yOCwxLjI3aDEwYTEuMjcsMS4yNywwLDAsMCwxLjI4LTEuMjdWNDAuNjdhMS4yNywxLjI3LDAsMCwwLTEuMjgtMS4yN2gtMTBhMS4yNywxLjI3LDAsMCwwLTEuMjgsMS4yN1ptMCwzMS4zOHY2LjgzYTEuMjgsMS4yOCwwLDAsMCwxLjI4LDEuMjhoMTBhMS4yOCwxLjI4LDAsMCwwLDEuMjgtMS4yOFY3Mi4wNWExLjI4LDEuMjgsMCwwLDAtMS4yOC0xLjI4aC0xMGExLjI4LDEuMjgsMCwwLDAtMS4yOCwxLjI4Wm0wLTQ3LjA2djYuODNhMS4yOCwxLjI4LDAsMCwwLDEuMjgsMS4yOGgxMGExLjI4LDEuMjgsMCwwLDAsMS4yOC0xLjI4VjI1YTEuMjgsMS4yOCwwLDAsMC0xLjI4LTEuMjhoLTEwQTEuMjgsMS4yOCwwLDAsMCwxMTAuMjksMjVaTTEyLjU5LDU2LjM2djYuODNhMS4yOCwxLjI4LDAsMCwxLTEuMjgsMS4yOGgtMTBBMS4yOCwxLjI4LDAsMCwxLDAsNjMuMTlWNTYuMzZhMS4yOCwxLjI4LDAsMCwxLDEuMjgtMS4yOGgxMGExLjI4LDEuMjgsMCwwLDEsMS4yOCwxLjI4Wm0wLTE1LjY5djYuODRhMS4yNywxLjI3LDAsMCwxLTEuMjgsMS4yN2gtMTBBMS4yNywxLjI3LDAsMCwxLDAsNDcuNTFWNDAuNjdBMS4yNywxLjI3LDAsMCwxLDEuMjgsMzkuNGgxMGExLjI3LDEuMjcsMCwwLDEsMS4yOCwxLjI3Wm0wLDMxLjM4djYuODNhMS4yOCwxLjI4LDAsMCwxLTEuMjgsMS4yOGgtMTBBMS4yOCwxLjI4LDAsMCwxLDAsNzguODhWNzIuMDVhMS4yOCwxLjI4LDAsMCwxLDEuMjgtMS4yOGgxMGExLjI4LDEuMjgsMCwwLDEsMS4yOCwxLjI4Wm0wLTQ3LjA2djYuODNhMS4yOCwxLjI4LDAsMCwxLTEuMjgsMS4yOGgtMTBBMS4yOCwxLjI4LDAsMCwxLDAsMzEuODJWMjVhMS4yOCwxLjI4LDAsMCwxLDEuMjgtMS4yOGgxMEExLjI4LDEuMjgsMCwwLDEsMTIuNTksMjVabTc4LjI0LDBIMzIuMDVhNi4zNCw2LjM0LDAsMCwwLTQuNSwxLjg2aDBhNi4zNCw2LjM0LDAsMCwwLTEuODYsNC41VjczLjUyYTYuMzgsNi4zOCwwLDAsMCw2LjM3LDYuMzdIOTAuODNBNi4zNCw2LjM0LDAsMCwwLDk1LjMyLDc4aDBhNi4zLDYuMywwLDAsMCwxLjg3LTQuNDlWMzEuMzlhNi4zOCw2LjM4LDAsMCwwLTEuODctNC41aDBBNi4zMiw2LjMyLDAsMCwwLDkwLjgzLDI1WiIvPjwvc3ZnPg==;" vertex="1" parent="1">
          <mxGeometry x="380" y="165" width="53" height="45.24" as="geometry" />
        </mxCell>
        <mxCell id="43GyFaymjqWp4qDGF987-21" value="" style="rounded=1;whiteSpace=wrap;html=1;" vertex="1" parent="1">
          <mxGeometry x="90" y="400" width="100" height="130" as="geometry" />
        </mxCell>
        <mxCell id="43GyFaymjqWp4qDGF987-22" value="" style="rounded=1;whiteSpace=wrap;html=1;fillColor=#dae8fc;strokeColor=#6c8ebf;" vertex="1" parent="1">
          <mxGeometry x="100" y="410" width="80" height="20" as="geometry" />
        </mxCell>
        <mxCell id="43GyFaymjqWp4qDGF987-23" value="" style="rounded=1;whiteSpace=wrap;html=1;fillColor=#dae8fc;strokeColor=#6c8ebf;" vertex="1" parent="1">
          <mxGeometry x="100" y="440" width="80" height="20" as="geometry" />
        </mxCell>
        <mxCell id="43GyFaymjqWp4qDGF987-24" value="" style="rounded=1;whiteSpace=wrap;html=1;fillColor=#dae8fc;strokeColor=#6c8ebf;" vertex="1" parent="1">
          <mxGeometry x="100" y="470" width="80" height="20" as="geometry" />
        </mxCell>
        <mxCell id="43GyFaymjqWp4qDGF987-25" value="" style="rounded=1;whiteSpace=wrap;html=1;fillColor=#dae8fc;strokeColor=#6c8ebf;" vertex="1" parent="1">
          <mxGeometry x="100" y="500" width="80" height="20" as="geometry" />
        </mxCell>
        <mxCell id="43GyFaymjqWp4qDGF987-26" value="&lt;font style=&quot;font-size: 20px;&quot;&gt;&lt;font&gt;1.1B&lt;/font&gt;&lt;font&gt;&lt;br&gt;&lt;/font&gt;&lt;/font&gt;" style="text;html=1;align=center;verticalAlign=middle;whiteSpace=wrap;rounded=0;" vertex="1" parent="1">
          <mxGeometry x="110" y="530" width="60" height="30" as="geometry" />
        </mxCell>
        <mxCell id="43GyFaymjqWp4qDGF987-27" value="" style="rounded=1;whiteSpace=wrap;html=1;" vertex="1" parent="1">
          <mxGeometry x="210" y="360" width="120" height="170" as="geometry" />
        </mxCell>
        <mxCell id="43GyFaymjqWp4qDGF987-28" value="" style="rounded=1;whiteSpace=wrap;html=1;fillColor=#ffe6cc;strokeColor=#d79b00;" vertex="1" parent="1">
          <mxGeometry x="220" y="440" width="100" height="20" as="geometry" />
        </mxCell>
        <mxCell id="43GyFaymjqWp4qDGF987-29" value="" style="rounded=1;whiteSpace=wrap;html=1;fillColor=#ffe6cc;strokeColor=#d79b00;" vertex="1" parent="1">
          <mxGeometry x="220" y="470" width="100" height="20" as="geometry" />
        </mxCell>
        <mxCell id="43GyFaymjqWp4qDGF987-30" value="" style="rounded=1;whiteSpace=wrap;html=1;fillColor=#ffe6cc;strokeColor=#d79b00;" vertex="1" parent="1">
          <mxGeometry x="220" y="500" width="100" height="20" as="geometry" />
        </mxCell>
        <mxCell id="43GyFaymjqWp4qDGF987-31" value="&lt;font style=&quot;font-size: 20px;&quot;&gt;&lt;font&gt;13B&lt;/font&gt;&lt;font&gt;&lt;br&gt;&lt;/font&gt;&lt;/font&gt;" style="text;html=1;align=center;verticalAlign=middle;whiteSpace=wrap;rounded=0;" vertex="1" parent="1">
          <mxGeometry x="240" y="530" width="60" height="30" as="geometry" />
        </mxCell>
        <mxCell id="43GyFaymjqWp4qDGF987-32" value="" style="rounded=1;whiteSpace=wrap;html=1;fillColor=#ffe6cc;strokeColor=#d79b00;" vertex="1" parent="1">
          <mxGeometry x="220" y="370" width="100" height="20" as="geometry" />
        </mxCell>
        <mxCell id="43GyFaymjqWp4qDGF987-34" value="&lt;div align=&quot;center&quot;&gt;&lt;font style=&quot;font-size: 20px;&quot;&gt;...&lt;/font&gt;&lt;/div&gt;" style="text;html=1;align=center;verticalAlign=middle;whiteSpace=wrap;rounded=0;rotation=90;" vertex="1" parent="1">
          <mxGeometry x="220" y="400" width="60" height="30" as="geometry" />
        </mxCell>
        <mxCell id="43GyFaymjqWp4qDGF987-35" value="&lt;div align=&quot;center&quot;&gt;&lt;font style=&quot;font-size: 20px;&quot;&gt;...&lt;/font&gt;&lt;/div&gt;" style="text;html=1;align=center;verticalAlign=middle;whiteSpace=wrap;rounded=0;rotation=-90;" vertex="1" parent="1">
          <mxGeometry x="260" y="400" width="60" height="30" as="geometry" />
        </mxCell>
        <mxCell id="43GyFaymjqWp4qDGF987-37" value="&lt;font style=&quot;font-size: 20px;&quot;&gt;&lt;font&gt;Model Level Routing&lt;/font&gt;&lt;font&gt;&lt;br&gt;&lt;/font&gt;&lt;/font&gt;" style="text;html=1;align=center;verticalAlign=middle;whiteSpace=wrap;rounded=0;" vertex="1" parent="1">
          <mxGeometry x="175" y="300" width="190" height="30" as="geometry" />
        </mxCell>
        <mxCell id="43GyFaymjqWp4qDGF987-38" value="" style="shape=image;verticalLabelPosition=bottom;labelBackgroundColor=default;verticalAlign=top;aspect=fixed;imageAspect=0;editableCssRules=.*;image=data:image/svg+xml,PHN2ZyB2aWV3Qm94PSIwIDAgMTIyLjg4IDEwNC45MSIgeG1sbnM9Imh0dHA6Ly93d3cudzMub3JnLzIwMDAvc3ZnIiBkYXRhLW5hbWU9IkxheWVyIDEiIGlkPSJMYXllcl8xIj48dGl0bGU+Y3B1PC90aXRsZT48cGF0aCBkPSJNMzIuMDUsMTguNTlIOTAuODNhMTIuNzEsMTIuNzEsMCwwLDEsOSwzLjc2aDBhMTIuNzYsMTIuNzYsMCwwLDEsMy43Niw5VjczLjUyYTEyLjc4LDEyLjc4LDAsMCwxLTMuNzcsOWwwLDBhMTIuNzcsMTIuNzcsMCwwLDEtOSwzLjc2SDMyLjA1YTEyLjc2LDEyLjc2LDAsMCwxLTktMy43N2gwYTEyLjc2LDEyLjc2LDAsMCwxLTMuNzYtOVYzMS4zOWExMi43NSwxMi43NSwwLDAsMSwzLjc2LTlsMCwwYTEyLjc4LDEyLjc4LDAsMCwxLDktMy43NVptMTEuNzUsNDRhMTAuNTYsMTAuNTYsMCwwLDEtMy0uNCw1LDUsMCwwLDEtMi4zMS0xLjQ4QTcuMTksNy4xOSwwLDAsMSwzNyw1Ny42NmEyMi4xMiwyMi4xMiwwLDAsMS0uNTEtNS4yNUEyMCwyMCwwLDAsMSwzNyw0Ny4zYTcuMzQsNy4zNCwwLDAsMSwxLjUyLTMuMDgsNS4xOCw1LjE4LDAsMCwxLDIuMzItMS41LDkuODksOS44OSwwLDAsMSwzLS40MiwyMS4yNiwyMS4yNiwwLDAsMSwyLjk0LjE4LDE2Ljc4LDE2Ljc4LDAsMCwxLDIuMTguNDEsOS44Nyw5Ljg3LDAsMCwxLDEuNDQuNDl2NC4wNmMtLjM0LS4wNy0uNzgtLjE1LTEuMzItLjIycy0xLjE1LS4xMy0xLjg0LS4xN1M0NS43Niw0Nyw0NSw0N2E1LjMzLDUuMzMsMCwwLDAtMS41NS4xOSwxLjgsMS44LDAsMCwwLTEsLjc1LDQuMzQsNC4zNCwwLDAsMC0uNTUsMS42NiwxOC42MiwxOC42MiwwLDAsMC0uMTcsMi44OSwyMi40NSwyMi40NSwwLDAsMCwuMTMsMi42OSw0LjY4LDQuNjgsMCwwLDAsLjQ4LDEuNjgsMiwyLDAsMCwwLDEsLjg2QTQuODMsNC44MywwLDAsMCw0NSw1OGMxLjM2LDAsMi40NywwLDMuMzItLjA2czEuNTMtLjExLDItLjE4djQuMDZhOS44OCw5Ljg4LDAsMCwxLTEuNTcuNDYsMTkuNjIsMTkuNjIsMCwwLDEtMi4xMS4yOWMtLjgxLjA4LTEuNzcuMTEtMi44OC4xMVptOS4zNC0uMTZ2LTIwaDguNzdhMTAuMywxMC4zLDAsMCwxLDIuMS4yMyw0LjYxLDQuNjEsMCwwLDEsMiwuOTQsNC44OSw0Ljg5LDAsMCwxLDEuNDYsMi4xNUExMS4xNCwxMS4xNCwwLDAsMSw2OCw0OS42NGExMS41MSwxMS41MSwwLDAsMS0uNTQsMy44OSw1LjEsNS4xLDAsMCwxLTEuNCwyLjIsNC40Myw0LjQzLDAsMCwxLTEuODcsMSw4LDgsMCwwLDEtMiwuMjUsOS45Miw5LjkyLDAsMCwxLTEuMDcsMGMtLjM2LDAtLjcyLS4wOC0xLjA3LS4xNXMtLjY3LS4xMi0xLS4xOWwtLjc0LS4xNHY2Wk01OC4zNiw1Mi4zaDNhMS4xNywxLjE3LDAsMCwwLC44NS0uMjksMS42MywxLjYzLDAsMCwwLC40My0uODcsNy4zMSw3LjMxLDAsMCwwLC4xMi0xLjQ0LDUuNSw1LjUsMCwwLDAtLjE1LTEuNCwxLjc1LDEuNzUsMCwwLDAtLjQ0LS44NSwxLjEzLDEuMTMsMCwwLDAtLjgxLS4yOGgtM1Y1Mi4zWm0yMCwxMC4zYTE4LjEyLDE4LjEyLDAsMCwxLTMuMTEtLjI2LDcuMTUsNy4xNSwwLDAsMS0yLjU5LTEsNC43Niw0Ljc2LDAsMCwxLTEuNzYtMiw3LjgyLDcuODIsMCwwLDEtLjY0LTMuNDJWNDIuNDloNS4yMlY1NS44NUExLjg2LDEuODYsMCwwLDAsNzUuNzksNTdhMiwyLDAsMCwwLDEsLjY5LDUuNDEsNS40MSwwLDAsMCwzLjEyLDAsMi4wNSwyLjA1LDAsMCwwLDEtLjY5LDEuOTIsMS45MiwwLDAsMCwuMzMtMS4xNlY0Mi40OWg1LjIyVjU1Ljg4YTgsOCwwLDAsMS0uNjMsMy40Miw0LjgzLDQuODMsMCwwLDEtMS43NiwyLDcuMjQsNy4yNCwwLDAsMS0yLjU4LDEsMTguMDcsMTguMDcsMCwwLDEtMy4xMi4yNlptMy4yMywyOS43MWg2LjgzYTEuMjgsMS4yOCwwLDAsMSwxLjI3LDEuMjh2MTBhMS4yOCwxLjI4LDAsMCwxLTEuMjcsMS4yOEg4MS41NmExLjI4LDEuMjgsMCwwLDEtMS4yOC0xLjI4di0xMGExLjI4LDEuMjgsMCwwLDEsMS4yOC0xLjI4Wm0tMTUuNjksMEg3Mi43QTEuMjksMS4yOSwwLDAsMSw3NCw5My41OXYxMGExLjI5LDEuMjksMCwwLDEtMS4yOCwxLjI4SDY1Ljg3YTEuMjgsMS4yOCwwLDAsMS0xLjI4LTEuMjh2LTEwYTEuMjgsMS4yOCwwLDAsMSwxLjI4LTEuMjhabS0xNS42OSwwSDU3YTEuMjgsMS4yOCwwLDAsMSwxLjI4LDEuMjh2MTBBMS4yOCwxLjI4LDAsMCwxLDU3LDEwNC45MUg1MC4xOGExLjI5LDEuMjksMCwwLDEtMS4yOC0xLjI4di0xMGExLjI5LDEuMjksMCwwLDEsMS4yOC0xLjI4Wm0tMTUuNjksMGg2Ljg0YTEuMjgsMS4yOCwwLDAsMSwxLjI3LDEuMjh2MTBhMS4yOCwxLjI4LDAsMCwxLTEuMjcsMS4yOEgzNC40OWExLjI4LDEuMjgsMCwwLDEtMS4yNy0xLjI4di0xMGExLjI4LDEuMjgsMCwwLDEsMS4yNy0xLjI4Wk04MS41NiwwaDYuODNhMS4yNywxLjI3LDAsMCwxLDEuMjcsMS4yOHYxMGExLjI3LDEuMjcsMCwwLDEtMS4yNywxLjI4SDgxLjU2YTEuMjgsMS4yOCwwLDAsMS0xLjI4LTEuMjh2LTEwQTEuMjgsMS4yOCwwLDAsMSw4MS41NiwwWk02NS44NywwSDcyLjdBMS4yOCwxLjI4LDAsMCwxLDc0LDEuMjh2MTBhMS4yOCwxLjI4LDAsMCwxLTEuMjgsMS4yOEg2NS44N2ExLjI4LDEuMjgsMCwwLDEtMS4yOC0xLjI4di0xMEExLjI4LDEuMjgsMCwwLDEsNjUuODcsMFpNNTAuMTgsMEg1N2ExLjI4LDEuMjgsMCwwLDEsMS4yOCwxLjI4djEwQTEuMjgsMS4yOCwwLDAsMSw1NywxMi41OUg1MC4xOGExLjI4LDEuMjgsMCwwLDEtMS4yOC0xLjI4di0xMEExLjI4LDEuMjgsMCwwLDEsNTAuMTgsMFpNMzQuNDksMGg2Ljg0QTEuMjcsMS4yNywwLDAsMSw0Mi42LDEuMjh2MTBhMS4yNywxLjI3LDAsMCwxLTEuMjcsMS4yOEgzNC40OWExLjI3LDEuMjcsMCwwLDEtMS4yNy0xLjI4di0xMEExLjI3LDEuMjcsMCwwLDEsMzQuNDksMFptNzUuOCw1Ni4zNnY2LjgzYTEuMjgsMS4yOCwwLDAsMCwxLjI4LDEuMjhoMTBhMS4yOCwxLjI4LDAsMCwwLDEuMjgtMS4yOFY1Ni4zNmExLjI4LDEuMjgsMCwwLDAtMS4yOC0xLjI4aC0xMGExLjI4LDEuMjgsMCwwLDAtMS4yOCwxLjI4Wm0wLTE1LjY5djYuODRhMS4yNywxLjI3LDAsMCwwLDEuMjgsMS4yN2gxMGExLjI3LDEuMjcsMCwwLDAsMS4yOC0xLjI3VjQwLjY3YTEuMjcsMS4yNywwLDAsMC0xLjI4LTEuMjdoLTEwYTEuMjcsMS4yNywwLDAsMC0xLjI4LDEuMjdabTAsMzEuMzh2Ni44M2ExLjI4LDEuMjgsMCwwLDAsMS4yOCwxLjI4aDEwYTEuMjgsMS4yOCwwLDAsMCwxLjI4LTEuMjhWNzIuMDVhMS4yOCwxLjI4LDAsMCwwLTEuMjgtMS4yOGgtMTBhMS4yOCwxLjI4LDAsMCwwLTEuMjgsMS4yOFptMC00Ny4wNnY2LjgzYTEuMjgsMS4yOCwwLDAsMCwxLjI4LDEuMjhoMTBhMS4yOCwxLjI4LDAsMCwwLDEuMjgtMS4yOFYyNWExLjI4LDEuMjgsMCwwLDAtMS4yOC0xLjI4aC0xMEExLjI4LDEuMjgsMCwwLDAsMTEwLjI5LDI1Wk0xMi41OSw1Ni4zNnY2LjgzYTEuMjgsMS4yOCwwLDAsMS0xLjI4LDEuMjhoLTEwQTEuMjgsMS4yOCwwLDAsMSwwLDYzLjE5VjU2LjM2YTEuMjgsMS4yOCwwLDAsMSwxLjI4LTEuMjhoMTBhMS4yOCwxLjI4LDAsMCwxLDEuMjgsMS4yOFptMC0xNS42OXY2Ljg0YTEuMjcsMS4yNywwLDAsMS0xLjI4LDEuMjdoLTEwQTEuMjcsMS4yNywwLDAsMSwwLDQ3LjUxVjQwLjY3QTEuMjcsMS4yNywwLDAsMSwxLjI4LDM5LjRoMTBhMS4yNywxLjI3LDAsMCwxLDEuMjgsMS4yN1ptMCwzMS4zOHY2LjgzYTEuMjgsMS4yOCwwLDAsMS0xLjI4LDEuMjhoLTEwQTEuMjgsMS4yOCwwLDAsMSwwLDc4Ljg4VjcyLjA1YTEuMjgsMS4yOCwwLDAsMSwxLjI4LTEuMjhoMTBhMS4yOCwxLjI4LDAsMCwxLDEuMjgsMS4yOFptMC00Ny4wNnY2LjgzYTEuMjgsMS4yOCwwLDAsMS0xLjI4LDEuMjhoLTEwQTEuMjgsMS4yOCwwLDAsMSwwLDMxLjgyVjI1YTEuMjgsMS4yOCwwLDAsMSwxLjI4LTEuMjhoMTBBMS4yOCwxLjI4LDAsMCwxLDEyLjU5LDI1Wm03OC4yNCwwSDMyLjA1YTYuMzQsNi4zNCwwLDAsMC00LjUsMS44NmgwYTYuMzQsNi4zNCwwLDAsMC0xLjg2LDQuNVY3My41MmE2LjM4LDYuMzgsMCwwLDAsNi4zNyw2LjM3SDkwLjgzQTYuMzQsNi4zNCwwLDAsMCw5NS4zMiw3OGgwYTYuMyw2LjMsMCwwLDAsMS44Ny00LjQ5VjMxLjM5YTYuMzgsNi4zOCwwLDAsMC0xLjg3LTQuNWgwQTYuMzIsNi4zMiwwLDAsMCw5MC44MywyNVoiLz48L3N2Zz4=;" vertex="1" parent="1">
          <mxGeometry x="110" y="344.75" width="53" height="45.25" as="geometry" />
        </mxCell>
        <mxCell id="43GyFaymjqWp4qDGF987-48" value="" style="rounded=1;whiteSpace=wrap;html=1;fillColor=#d5e8d4;strokeColor=#82b366;" vertex="1" parent="1">
          <mxGeometry x="355" y="470" width="85" height="20" as="geometry" />
        </mxCell>
        <mxCell id="43GyFaymjqWp4qDGF987-49" value="" style="rounded=1;whiteSpace=wrap;html=1;fillColor=#d5e8d4;strokeColor=#82b366;" vertex="1" parent="1">
          <mxGeometry x="355" y="500" width="85" height="20" as="geometry" />
        </mxCell>
        <mxCell id="43GyFaymjqWp4qDGF987-50" value="" style="rounded=1;whiteSpace=wrap;html=1;fillColor=#d5e8d4;strokeColor=#82b366;" vertex="1" parent="1">
          <mxGeometry x="355" y="405" width="85" height="20" as="geometry" />
        </mxCell>
        <mxCell id="43GyFaymjqWp4qDGF987-51" value="&lt;div align=&quot;center&quot;&gt;&lt;font style=&quot;font-size: 20px;&quot;&gt;...&lt;/font&gt;&lt;/div&gt;" style="text;html=1;align=center;verticalAlign=middle;whiteSpace=wrap;rounded=0;rotation=90;" vertex="1" parent="1">
          <mxGeometry x="355" y="430" width="60" height="30" as="geometry" />
        </mxCell>
        <mxCell id="43GyFaymjqWp4qDGF987-52" value="&lt;div align=&quot;center&quot;&gt;&lt;font style=&quot;font-size: 20px;&quot;&gt;...&lt;/font&gt;&lt;/div&gt;" style="text;html=1;align=center;verticalAlign=middle;whiteSpace=wrap;rounded=0;rotation=-90;" vertex="1" parent="1">
          <mxGeometry x="380" y="430" width="60" height="30" as="geometry" />
        </mxCell>
        <mxCell id="43GyFaymjqWp4qDGF987-54" value="&lt;font style=&quot;font-size: 20px;&quot;&gt;&lt;font&gt;7B&lt;/font&gt;&lt;font&gt;&lt;br&gt;&lt;/font&gt;&lt;/font&gt;" style="text;html=1;align=center;verticalAlign=middle;whiteSpace=wrap;rounded=0;" vertex="1" parent="1">
          <mxGeometry x="367.5" y="530" width="60" height="30" as="geometry" />
        </mxCell>
      </root>
    </mxGraphModel>
  </diagram>
</mxfile>
